<!DOCTYPE svg PUBLIC "-//W3C//DTD SVG 1.1//EN" "http://www.w3.org/Graphics/SVG/1.1/DTD/svg11.dtd">
<!-- Uploaded to: ICON Repo, www.iconrepo.com, Transformed by: ICON Repo Mixer Tools -->
<svg fill="#39a27a" width="800px" height="800px" version="1.1" viewBox="144 144 512 512" xmlns="http://www.w3.org/2000/svg" stroke="#39a27a">
<g id="SVGRepo_bgCarrier" stroke-width="0"/>
<g id="SVGRepo_tracerCarrier" stroke-linecap="round" stroke-linejoin="round"/>
<g id="SVGRepo_iconCarrier"> <path d="m609.92 358.02h-1.7227l-7.0234-84.324 0.003906-0.003906c5.0039-0.78516 8.7031-5.0742 8.7422-10.137v-20.992c0-2.7852-1.1055-5.4531-3.0742-7.4219s-4.6367-3.0742-7.4219-3.0742h-1.8906l-8.8164-44.082h0.003906c-0.99609-4.8945-5.2969-8.4102-10.289-8.4102-4.9922 0-9.293 3.5156-10.285 8.4102l-8.8164 44.082h-1.8906c-5.7969 0-10.496 4.6992-10.496 10.496v20.992c0.042969 5.0625 3.7422 9.3516 8.7461 10.137l-7.0234 84.328h-1.7227c-5.7969 0-10.496 4.6992-10.496 10.496v20.992c0 2.7812 1.1094 5.4531 3.0742 7.4219 1.9688 1.9688 4.6406 3.0742 7.4219 3.0742v102.44c-6.2812-4.1641-13.488-6.7266-20.992-7.4648v-121.22c0.054687-7.9883-3.5586-15.559-9.8008-20.543-6.2422-4.9844-14.422-6.832-22.199-5.0156-1.918-17.926-8.9102-34.93-20.16-49.02-11.254-14.086-26.293-24.668-43.352-30.496l-20.258-81.156c-1.1719-4.668-5.3672-7.9453-10.18-7.9453-4.8164 0-9.0117 3.2773-10.184 7.9453l-20.258 81.156c-17.051 5.8359-32.086 16.418-43.332 30.504-11.242 14.086-18.234 31.09-20.148 49.012-7.7812-1.8281-15.973 0.015625-22.219 5.0039-6.25 4.9844-9.8672 12.562-9.8125 20.555v121.08c-7.5156 0.85156-14.719 3.5039-20.992 7.7266v-102.57c2.7812 0 5.4531-1.1055 7.4219-3.0742s3.0742-4.6406 3.0742-7.4219v-20.992c0-2.7852-1.1055-5.4531-3.0742-7.4219s-4.6406-3.0742-7.4219-3.0742h-1.7227l-7.0234-84.324 0.003906-0.003906c5-0.78516 8.6992-5.0742 8.7422-10.137v-20.992c0-2.7852-1.1055-5.4531-3.0742-7.4219s-4.6406-3.0742-7.4219-3.0742h-1.8906l-8.8164-44.082c-0.99219-4.8945-5.293-8.4102-10.285-8.4102-4.9922 0-9.293 3.5156-10.285 8.4102l-8.8164 44.082h-1.8906c-5.7969 0-10.496 4.6992-10.496 10.496v20.992c0.042969 5.0625 3.7422 9.3516 8.7422 10.137l-7.0195 84.328h-1.7227c-5.7969 0-10.496 4.6992-10.496 10.496v20.992c0 2.7812 1.1055 5.4531 3.0742 7.4219s4.6367 3.0742 7.4219 3.0742v115.45c-5.7969 0-10.496 4.6992-10.496 10.496v83.969c0 2.7852 1.1055 5.4531 3.0742 7.4219s4.6367 3.0742 7.4219 3.0742h419.84c2.7852 0 5.4531-1.1055 7.4219-3.0742s3.0742-4.6367 3.0742-7.4219v-83.969c0-2.7812-1.1055-5.4531-3.0742-7.4219-1.9688-1.9648-4.6367-3.0742-7.4219-3.0742v-115.45c2.7852 0 5.4531-1.1055 7.4219-3.0742s3.0742-4.6406 3.0742-7.4219v-20.992c0-2.7852-1.1055-5.4531-3.0742-7.4219s-4.6367-3.0742-7.4219-3.0742zm-33.199-83.969h3.4219l7 83.969h-17.422zm-39.328 247.63c-0.61328 1.3398-0.9375 2.7969-0.94531 4.2695v10.496h-10.496v-20.457c4.2383 0.89062 8.1758 2.8516 11.441 5.6914zm-95.406-16.723h-20.992c-5.7969 0-10.496 4.6992-10.496 10.496v20.992h-20.992v-20.992c0-2.7812-1.1055-5.4531-3.0742-7.4219-1.9688-1.9648-4.6406-3.0742-7.4219-3.0742h-20.992c-5.7969 0-10.496 4.6992-10.496 10.496v20.992h-20.992v-41.984h146.95v41.984h-20.992v-20.992c0-2.7812-1.1094-5.4531-3.0742-7.4219-1.9688-1.9648-4.6406-3.0742-7.4219-3.0742zm-146.95 15.934c0.99219 0.72266 1.9375 1.5117 2.8242 2.3633 3.6484 3.582 6.1367 8.1797 7.1445 13.191h-9.9688zm0-120.89h10.496v102.44c-3.2695-2.1445-6.7969-3.8633-10.496-5.1133zm136.23-52.48c-0.34375-10.789-1.4805-21.539-3.3984-32.16 6.7031 9.6172 11.199 20.598 13.16 32.16zm-20.992 0h-20.551c0.24609-18.105 3.7266-36.02 10.277-52.902 6.5586 16.879 10.035 34.797 10.273 52.902zm-41.543 0h-9.7617c1.9609-11.562 6.457-22.543 13.164-32.16-1.9141 10.621-3.0508 21.371-3.4023 32.16zm104.74 20.992v10.496h-146.95v-10.496zm31.488 128.85h-0.003907c-3.6953 1.2578-7.2188 2.9727-10.496 5.1016v-102.46h10.496zm-31.488-97.359v42.562-0.003906c-21.391-15.203-47.262-22.797-73.473-21.566-26.215-1.2305-52.086 6.3633-73.473 21.566v-42.559zm-73.473 41.984c36.832 0 64.203 12.512 71.52 31.488h-143.04c7.3125-18.98 34.688-31.488 71.52-31.488zm104.96 78.824-0.003907 15.637h-9.9727 0.003906c1.3047-6.2539 4.8477-11.816 9.9688-15.637zm-5.25-152.3c1.3906 0 2.7266 0.55078 3.7109 1.5352s1.5352 2.3203 1.5352 3.7109v5.25h-10.496v-5.25c0-2.8984 2.3516-5.2461 5.25-5.2461zm-26.984-20.992h-10.371c-2.5156-18.641-10.145-36.223-22.043-50.793 17.562 11.523 29.359 30.008 32.414 50.793zm-72.727-114.17 7.6523 30.586c-2.5312-0.20703-5.0703-0.38672-7.6523-0.38672s-5.1211 0.17969-7.6523 0.38672zm-40.355 63.375h-0.003906c-11.883 14.574-19.496 32.156-22 50.793h-10.371 0.003907c3.043-20.777 14.82-39.258 32.367-50.793zm-64.605 77.031c0-2.8984 2.3477-5.2461 5.2461-5.2461 2.8984 0 5.25 2.3477 5.25 5.2461v5.25h-10.496zm-20.992 162.69h-10.496v-10.496c0-1.4453-0.30078-2.875-0.88281-4.1953 3.2734-2.7617 7.1836-4.668 11.379-5.543zm-54.191-262.4h3.4219l7 83.969h-17.422zm-8.7852 125.95h20.992v115.45h-20.992zm-10.496 136.45h41.984v62.977h-41.984zm62.977 20.992h272.89v41.984h-20.992v-20.992c0-5.7969-4.6992-10.496-10.496-10.496s-10.496 4.6992-10.496 10.496v20.992h-20.988v-20.992c0-5.7969-4.6992-10.496-10.496-10.496-5.7969 0-10.496 4.6992-10.496 10.496v20.992h-20.992v-20.992c0-5.7969-4.6992-10.496-10.496-10.496-5.7969 0-10.496 4.6992-10.496 10.496v20.992h-20.992v-20.992c0-5.7969-4.6992-10.496-10.496-10.496-5.7969 0-10.496 4.6992-10.496 10.496v20.992h-20.992v-20.992c0-5.7969-4.6992-10.496-10.496-10.496-5.7969 0-10.496 4.6992-10.496 10.496v20.992h-20.992v-20.992c0-5.7969-4.6992-10.496-10.496-10.496-5.7969 0-10.496 4.6992-10.496 10.496v20.992h-20.992zm335.87 41.984h-41.984v-62.977h41.984zm-10.496-83.969h-20.992v-115.45h20.992z"/> </g>
</svg>